<svg xmlns="http://www.w3.org/2000/svg" viewBox="0 0 64 64" role="img" aria-label="llama.cpp">
  <defs>
    <radialGradient id="llama-bg" cx="50%" cy="38%" r="70%">
      <stop offset="0" stop-color="#313943"/>
      <stop offset="1" stop-color="#11161b"/>
    </radialGradient>
    <linearGradient id="llama-chip" x1="0" y1="0" x2="1" y2="1">
      <stop stop-color="#d8ff58"/>
      <stop offset="1" stop-color="#62e58f"/>
    </linearGradient>
  </defs>
  <circle cx="32" cy="32" r="32" fill="url(#llama-bg)"/>
  <g fill="none" stroke="#6c7b86" stroke-linecap="round" stroke-width="2">
    <path d="M8 20h10l5 5"/>
    <path d="M8 44h10l5-5"/>
    <path d="M56 17h-9l-5 5"/>
    <path d="M56 47h-9l-5-5"/>
    <path d="M14 10v7"/>
    <path d="M50 54v-7"/>
  </g>
  <g fill="#d8ff58">
    <circle cx="8" cy="20" r="2.4"/>
    <circle cx="8" cy="44" r="2.4"/>
    <circle cx="56" cy="17" r="2.4"/>
    <circle cx="56" cy="47" r="2.4"/>
    <circle cx="14" cy="10" r="2.4"/>
    <circle cx="50" cy="54" r="2.4"/>
  </g>
  <rect x="18" y="17" width="28" height="30" rx="8" fill="#171e24" stroke="url(#llama-chip)" stroke-width="2.5"/>
  <path d="M25 38V25l7 7 7-7v13" fill="none" stroke="url(#llama-chip)" stroke-linecap="round" stroke-linejoin="round" stroke-width="4"/>
  <circle cx="32" cy="32" r="2.2" fill="#f4ffd0"/>
</svg>
